<svg xmlns="http://www.w3.org/2000/svg" width="117.999" height="82.841" viewBox="0 0 117.999 82.841">
  <g id="Group_85" data-name="Group 85" transform="translate(-1018.063 -92.43)">
    <path id="Path_24" data-name="Path 24" d="M1035.347,119.654c-1.338-.46-2.607-.9-3.879-1.332-2.768-.943-5.544-1.861-8.3-2.841a7.723,7.723,0,0,1-2.07-1.086,1.3,1.3,0,0,1,.019-2.28,7.2,7.2,0,0,1,1.944-1.017q24.45-8.347,48.913-16.657c1.7-.578,3.4-1.152,5.081-1.771a3.665,3.665,0,0,1,2.583-.008q23.368,8.093,46.744,16.164c2.322.8,4.653,1.583,6.965,2.414a7.88,7.88,0,0,1,1.9.949,1.394,1.394,0,0,1,.014,2.528,7.379,7.379,0,0,1-1.891.965q-16.02,5.55-32.052,11.064c-6.945,2.4-13.893,4.784-20.823,7.22a4.792,4.792,0,0,1-3.35-.006q-17.737-6.109-35.506-12.125a1.213,1.213,0,0,0-.965.2,13.916,13.916,0,0,0-5.083,8,67.33,67.33,0,0,0-1.02,6.982,1.21,1.21,0,0,0,.406.906,5.7,5.7,0,0,1,.261,8.834c-.6.539-.327,1.125-.312,1.7.105,4.052.37,8.105.306,12.154a18.361,18.361,0,0,1-2.688,9.764,12.731,12.731,0,0,1-5.639,4.811,1.472,1.472,0,0,1-.968.006,25.337,25.337,0,0,1-7.877-4.572c.326-.415.635-.813.949-1.206a45.49,45.49,0,0,0,8.34-14.986c.625-2.036.981-4.154,1.472-6.232a.748.748,0,0,0-.4-.9,5.707,5.707,0,0,1,.472-9.906,1,1,0,0,0,.573-.978c.138-2.131.2-4.275.494-6.386a17.221,17.221,0,0,1,4.939-9.848C1035.033,120.042,1035.149,119.886,1035.347,119.654Z" fill="#2ebae2"/>
    <path id="Path_25" data-name="Path 25" d="M1180.243,344.161c2.056.7,3.981,1.345,5.9,2q13.778,4.69,27.554,9.384a6.276,6.276,0,0,1,.9.325,5.884,5.884,0,0,0,5.015.04c10.681-3.762,21.4-7.417,32.105-11.108,1.5-.518,3.008-1.033,4.634-1.592v3.122c0,7.447-.091,14.9.044,22.34a7.837,7.837,0,0,1-3.411,6.786,31.389,31.389,0,0,1-10.579,4.885,80.751,80.751,0,0,1-17.569,2.851,100.8,100.8,0,0,1-22.705-1.075,53.225,53.225,0,0,1-14.723-4.339,16.383,16.383,0,0,1-5.727-4.188,6.072,6.072,0,0,1-1.452-4q.027-12.276.009-24.553Z" transform="translate(-138.249 -213.786)" fill="#2ebae2"/>
  </g>
</svg>
